[img]http://img834.imageshack.us/img834/4775/alvinz.jpg[/img]
[code]
Alvin and the Chipmunks Chipwrecked 2011 R5 READNFO XviD-26K

Imdb: 
http://www.imdb.com/title/tt1615918/

Plot:
Playing around while aboard a cruise ship, the Chipmunks and Chipettes accidentally go overboard and end up marooned in a tropical paradise. They discover their new turf is not as deserted as it seems.

Sources:
RUSSIAN VIDEO THNXS!!
OWN audio as some of you guyz will know...

Notes:
READNFO WHY BECAUSE THE AUDIO GIVEN TO USE HAD ADVERTS IN WHICH NEEDED CUTTIN!!... THE AUDIO WAS NOT SO BAD...ENCODED VIDEO AND THE SYNCED THE AUDIO TO THE ENCODED VIDEO SO ENJOY!!!
PLUS IS IN SYNC BINGO ;)

Greetz:
Xtreme Encode|FYA|ILLUMANTI|CM8|RX|VISION|HDSCENE|NIGHTMAREZ|xTriLL|DTRG|CRYS|REMIXHD|BIDA|RX|REFILL|INSPiRAL|SIC|ZOMBIESZ|HOPE
To all the people who have helped me :P you know who you are

Anything to offer email us @: 26k@hushmail.me

Video
ID                                       : 0
Format                                   : MPEG-4 Visual
Format profile                           : Advanced Simple@L5
Format settings, BVOP                    : 1
Format settings, QPel                    : No
Format settings, GMC                     : No warppoints
Format settings, Matrix                  : Custom
Codec ID                                 : XVID
Codec ID/Hint                            : XviD
Duration                                 : 1h 29mn
Bit rate                                 : 755 Kbps
Width                                    : 720 pixels
Height                                   : 400 pixels
Display aspect ratio                     : 16:9
Frame rate                               : 24.000 fps
Original frame rate                      : 25.000 fps
Color space                              : YUV
Chroma subsampling                       : 4:2:0
Bit depth                                : 8 bits
Scan type                                : Progressive
Compression mode                         : Lossy
Bits/(Pixel*Frame)                       : 0.109
Stream size                              : 482 MiB (77%)
Writing library                          : XviD 64

Audio
ID                                       : 1
Format                                   : MPEG Audio
Codec ID                                 : 55
Codec ID/Hint                            : MP3
Duration                                 : 1h 24mn
Bit rate                                 : 224 Kbps
Channel(s)                               : 2 channels
Sampling rate                            : 44.1 KHz
Compression mode                         : Lossy
Stream size                              : 136 MiB (22%)
Alignment                                : Split accross interleaves
Interleave, duration                     : 44 ms (1.05 video frame)
Interleave, preload duration             : 500 ms

[/code]
Screens:
[img]http://img33.imageshack.us/img33/7717/vlcsnap2012012000h42m35.png[/img]
[img]http://img259.imageshack.us/img259/6551/vlcsnap2012012000h42m45.png[/img]
[img]http://img696.imageshack.us/img696/8974/vlcsnap2012012000h42m51.png[/img]
[img]http://img825.imageshack.us/img825/2548/vlcsnap2012012000h42m55.png[/img]
[img]http://img846.imageshack.us/img846/9210/vlcsnap2012012000h42m58.png[/img]
[img]http://img23.imageshack.us/img23/4308/vlcsnap2012012000h43m12.png[/img]
[img]http://img804.imageshack.us/img804/6118/vlcsnap2012012000h43m24.png[/img]

[img]http://img851.imageshack.us/img851/5503/26ks.jpg[/img]
Thank you smallz for banner!